# xmcd CD database file
#
# Track frame offsets:
#	150
#	25057
#	58567
#	84175
#	110147
#	137190
#	178075
#	206825
#	246067
#	277710
#
# Disc length: 4010 seconds
#
# Revision: 7
# Processed by: cddbd v1.5.1PL2 Copyright (c) Steve Scherf et al.
# Submitted via: CDex 1.51
#
DISCID=860fa80a
DTITLE=Indopepsychics - Leiwand
DYEAR=2002
DGENRE=Electronic
TTITLE0=Rand~
TTITLE1=5_24
TTITLE2=D_P-pt.5
TTITLE3=Phasor~ With Kit Crayton
TTITLE4=Escape
TTITLE5=Sah~ With Robert Henke[Monolake]
TTITLE6=Azul
TTITLE7=THE Absolution [Indopepsychics Remix]
TTITLE8=Moxa~ With Jan Jelineck
TTITLE9=Or403
EXTD=YEAR: 2002
EXTT0=
EXTT1=
EXTT2=
EXTT3=
EXTT4=
EXTT5=
EXTT6=
EXTT7=
EXTT8=
EXTT9=
PLAYORDER=
